# xmcd
#
# Track frame offsets: 
#        150
#        16154
#        29152
#        51933
#        75378
#        93428
#        114878
#        129614
#        149731
#        168501
#        184263
#        208904
#        229944
#        254274
#        278084
#        298977
#
# Disc length: 4324 seconds
#
# Revision: 0
# Processed by: cddbd v1.5.2PL0 Copyright (c) Steve Scherf et al.
# Submitted via: ExactAudioCopyFreeDBPlugin 1.0
#
DISCID=f210e210
DTITLE=The Buddaheads - Here's to You: The Very Best of the Buddaheads
DTITLE=, Vol. 1
DYEAR=2013
DGENRE=Blues
TTITLE0=Let It Roll
TTITLE1=Blues Power
TTITLE2=Goin Out Of My Mind
TTITLE3=Mood For Love
TTITLE4=No Part of It
TTITLE5=Sooner Or Later
TTITLE6=Hurricain
TTITLE7=Road To Ruin
TTITLE8=Just For Fun
TTITLE9=At Ten She's A Two
TTITLE10=Evil
TTITLE11=Wine Women and Workin'
TTITLE12=Wish I Had Everything I Want
TTITLE13=Amen
TTITLE14=Dangerous Thing
TTITLE15=No Blues Today
EXTD=
EXTT0=
EXTT1=
EXTT2=
EXTT3=
EXTT4=
EXTT5=
EXTT6=
EXTT7=
EXTT8=
EXTT9=
EXTT10=
EXTT11=
EXTT12=
EXTT13=
EXTT14=
EXTT15=
PLAYORDER=
